Coordinates
version=1
nRows=8
nColumns=40
inDegrees=yes

Units are S.I. units (second, meters, Newtons, ...)
Angles are in degrees.

endheader
time	pelvis_tilt	pelvis_list	pelvis_rotation	pelvis_tx	pelvis_ty	pelvis_tz	hip_flexion_r	hip_adduction_r	hip_rotation_r	knee_angle_r	knee_angle_r_beta	ankle_angle_r	subtalar_angle_r	mtp_angle_r	hip_flexion_l	hip_adduction_l	hip_rotation_l	knee_angle_l	knee_angle_l_beta	ankle_angle_l	subtalar_angle_l	mtp_angle_l	lumbar_extension	lumbar_bending	lumbar_rotation	arm_flex_r	arm_add_r	arm_rot_r	elbow_flex_r	pro_sup_r	wrist_flex_r	wrist_dev_r	arm_flex_l	arm_add_l	arm_rot_l	elbow_flex_l	pro_sup_l	wrist_flex_l	wrist_dev_l
     43.13000000	    -10.83881809	     -2.37747846	     -3.92569556	      0.95823166	      0.91878433	      0.42070317	     37.53432710	     -6.21026798	     -9.87425355	     26.78675821	     26.78675821	      3.02690287	     -2.41202592	      3.67970265	      6.18415702	     -3.15217862	    -12.74121857	     15.95366842	     15.95366842	     19.71193201	      6.36260373	     -3.94820382	    -10.77210454	      0.48070870	      1.59285758	    -15.69457254	    -14.43381419	     -2.13932426	     27.30830136	     46.69233418	      0.00000000	      0.00000000	     29.19824009	    -18.97465648	     -8.90850938	     88.23541629	     48.00616265	      0.00000000	      0.00000000
     43.14157143	    -10.84082660	     -2.13824180	     -3.74817856	      0.95939413	      0.91721477	      0.42252099	     36.78699674	     -5.84872825	    -10.37878074	     23.92486999	     23.92486999	      2.41238479	     -1.25526702	      4.84454507	      5.29628085	     -2.97940571	    -12.95070389	     15.49076627	     15.49076627	     19.97746326	      7.11329361	     -4.20081613	    -10.82873201	      0.16290027	      1.59120238	    -17.42692369	    -14.32923531	     -2.15962663	     27.70727075	     46.64985619	      0.00000000	      0.00000000	     29.04112882	    -18.73826172	     -9.10295167	     90.32825995	     48.06492791	      0.00000000	      0.00000000
     43.15314286	    -10.86017881	     -1.85981963	     -3.59462132	      0.96072090	      0.91542348	      0.42452050	     36.23945212	     -5.55488764	    -10.82692528	     21.71178087	     21.71178087	      2.03810252	     -0.11192766	      6.44660803	      4.43672762	     -2.81056472	    -13.29607719	     15.08536070	     15.08536070	     20.21593877	      8.07636324	     -4.63355846	    -10.89590150	     -0.21063502	      1.30724222	    -19.20924546	    -14.31956277	     -2.25121798	     29.24837852	     46.55245997	      0.00000000	      0.00000000	     28.33045148	    -18.73705402	     -9.61583651	     93.16680808	     48.16491102	      0.00000000	      0.00000000
     43.16471429	    -11.05023144	     -1.50825817	     -3.36643577	      0.96207942	      0.91320884	      0.42655066	     36.02813365	     -5.35002262	    -10.95713957	     20.08671425	     20.08671425	      1.47482163	      0.31343838	      7.09410878	      3.91618643	     -2.54795763	    -13.17909176	     14.93817005	     14.93817005	     20.52999233	      8.34916660	     -4.79847083	    -10.56860753	     -0.60310425	      1.09168121	    -20.45868147	    -14.14930371	     -2.21894823	     29.08505436	     46.54243655	      0.00000000	      0.00000000	     28.10108714	    -18.71700259	     -9.71348149	     93.67932082	     48.18064057	      0.00000000	      0.00000000
     43.17628571	    -11.08208504	     -1.56699678	     -3.24532471	      0.96384696	      0.91164207	      0.42898751	     35.36308730	     -4.72355433	    -11.27116797	     18.40674345	     18.40674345	      0.86998132	      0.91657293	      7.88523184	      2.99197342	     -2.72411268	    -13.24340119	     14.45699750	     14.45699750	     20.79252967	      8.81477719	     -4.89768314	    -10.54384401	     -0.57761808	      1.25513805	    -21.50684759	    -13.99160340	     -2.19650121	     29.29379153	     46.51670262	      0.00000000	      0.00000000	     27.53341422	    -18.24845261	     -9.71095175	     95.00646490	     48.20828076	      0.00000000	      0.00000000
     43.18785714	    -11.11632865	     -1.42021837	     -3.00684481	      0.96560027	      0.90980752	      0.43129903	     35.18826096	     -4.50117916	    -11.34002914	     17.98245360	     17.98245360	      0.63007340	      1.00472674	      8.12548824	      2.30756337	     -2.72128941	    -13.10924390	     14.39121528	     14.39121528	     21.12615833	      9.10735688	     -5.05724344	    -10.47307538	     -0.74457849	      1.13663761	    -22.39143475	    -13.83403129	     -2.18391005	     29.25932579	     46.50663652	      0.00000000	      0.00000000	     26.96976520	    -18.03635608	     -9.71685450	     95.53829483	     48.21822158	      0.00000000	      0.00000000
     43.19942857	    -11.15939034	     -1.51281477	     -2.83562028	      0.96749831	      0.90830292	      0.43385195	     34.94378920	     -4.07319094	    -11.38127644	     17.80843036	     17.80843036	      0.43035636	      0.97305810	      8.21612153	      1.58911742	     -2.99629381	    -13.07822433	     14.27846253	     14.27846253	     21.39112099	      9.38031672	     -5.17486879	    -10.42932665	     -0.63004049	      1.23748347	    -22.97927877	    -13.64296283	     -2.16103073	     29.37833007	     46.49149714	      0.00000000	      0.00000000	     26.08120761	    -17.60066735	     -9.64566654	     96.23434761	     48.22511635	      0.00000000	      0.00000000
     43.21100000	    -11.18654573	     -1.62352521	     -2.69251355	      0.96932508	      0.90708203	      0.43649705	     34.77021970	     -3.70423344	    -11.34911437	     18.08519719	     18.08519719	      0.39945357	      0.74454933	      8.07946306	      0.97119515	     -3.32755819	    -13.00562561	     14.38220200	     14.38220200	     21.63705871	      9.55896508	     -5.31785584	    -10.44746648	     -0.49198172	      1.27678299	    -23.24736215	    -13.50070542	     -2.13642489	     29.51829918	     46.47891344	      0.00000000	      0.00000000	     25.25436328	    -17.19837704	     -9.56052114	     96.70901409	     48.22666100	      0.00000000	      0.00000000
